<svg id="SvgjsSvg1102" width="288" height="288" xmlns="http://www.w3.org/2000/svg" version="1.1" xmlns:xlink="http://www.w3.org/1999/xlink" xmlns:svgjs="http://svgjs.com/svgjs"><defs id="SvgjsDefs1103"></defs><g id="SvgjsG1104"><svg xmlns="http://www.w3.org/2000/svg" fill="none" viewBox="0 0 24 24" width="288" height="288"><circle cx="12" cy="12" r="11" fill="#9eaab0" opacity=".4" class="color000 svgShape"></circle><path fill="#9eaab0" fill-rule="evenodd" d="M12 11C13.6569 11 15 9.65685 15 8C15 6.34315 13.6569 5 12 5C10.3431 5 9 6.34315 9 8C9 9.65685 10.3431 11 12 11ZM10 13C8.34315 13 7 14.3431 7 16C7 17.6569 8.34315 19 10 19H14C15.6569 19 17 17.6569 17 16C17 14.3431 15.6569 13 14 13H10Z" clip-rule="evenodd" class="color000 svgShape"></path></svg></g></svg>